<?xml version="1.0" encoding="UTF-8" standalone="no"?>
<!-- Created with Inkscape (http://www.inkscape.org/) -->

<svg
   width="50"
   height="50"
   viewBox="0 0 13.229166 13.229167"
   version="1.1"
   id="svg5"
   inkscape:version="1.1 (c68e22c387, 2021-05-23)"
   sodipodi:docname="icons_50x50.svg"
   xmlns:inkscape="http://www.inkscape.org/namespaces/inkscape"
   xmlns:sodipodi="http://sodipodi.sourceforge.net/DTD/sodipodi-0.dtd"
   xmlns="http://www.w3.org/2000/svg"
   xmlns:svg="http://www.w3.org/2000/svg">
  <sodipodi:namedview
     id="namedview7"
     pagecolor="#ffffff"
     bordercolor="#666666"
     borderopacity="1.0"
     inkscape:pageshadow="2"
     inkscape:pageopacity="0.0"
     inkscape:pagecheckerboard="0"
     inkscape:document-units="px"
     showgrid="false"
     units="px"
     inkscape:zoom="2.729606"
     inkscape:cx="-59.898755"
     inkscape:cy="53.304397"
     inkscape:window-width="2047"
     inkscape:window-height="1081"
     inkscape:window-x="528"
     inkscape:window-y="210"
     inkscape:window-maximized="0"
     inkscape:current-layer="layer5"
     showguides="true"
     inkscape:guide-bbox="true">
    <sodipodi:guide
       position="0.64651061,7.6962385"
       orientation="1,0"
       id="guide219" />
    <sodipodi:guide
       position="12.554334,6.0123038"
       orientation="1,0"
       id="guide221" />
    <sodipodi:guide
       position="2.3905858,12.582656"
       orientation="0,-1"
       id="guide223" />
    <sodipodi:guide
       position="2.3905858,0.65979689"
       orientation="0,-1"
       id="guide225" />
  </sodipodi:namedview>
  <defs
     id="defs2" />
  <g
     inkscape:label="Bootstrap Icon"
     inkscape:groupmode="layer"
     id="layer1"
     style="display:none"
     sodipodi:insensitive="true">
    <path
       id="rect135"
       style="fill:none;fill-rule:evenodd;stroke:#000000;stroke-width:0.999999;stroke-opacity:1"
       d="M 7.5019531,2.4433594 V 7.8417969 H 42.392578 V 42.107422 h 5.056641 V 2.4433594 Z"
       transform="scale(0.26458333)" />
    <rect
       style="fill:none;fill-rule:evenodd;stroke:#000000;stroke-width:0.280604;stroke-opacity:1"
       id="rect137-2"
       width="10.569697"
       height="10.494521"
       x="0.64667207"
       y="2.0748088" />
  </g>
  <g
     inkscape:groupmode="layer"
     id="layer2"
     inkscape:label="React"
     style="display:none"
     sodipodi:insensitive="true">
    <g
       aria-label="&lt; React /&gt;"
       id="text2346"
       style="font-size:10.5833px;line-height:1.25;stroke-width:0.264583">
      <g
         id="g10275"
         transform="translate(0,1.7141673)">
        <rect
           style="display:inline;fill:none;stroke:#000000;stroke-width:0.264583;stroke-opacity:1"
           id="rect1267"
           width="11.907824"
           height="5.878736"
           x="0.6465106"
           y="0.64651048" />
        <rect
           style="display:inline;fill:none;stroke:#000000;stroke-width:0.264583;stroke-opacity:1"
           id="rect1269"
           width="11.907824"
           height="1.127635"
           x="0.64651066"
           y="0.64651054" />
        <rect
           style="display:inline;fill:none;stroke:#000000;stroke-width:0.264583;stroke-opacity:1"
           id="rect1271"
           width="2.3905859"
           height="4.7661366"
           x="0.64651066"
           y="1.7741456" />
        <rect
           style="display:inline;fill:none;stroke:#000000;stroke-width:0.264583;stroke-opacity:1"
           id="rect1273"
           width="2.8266046"
           height="2.4507263"
           x="3.6084316"
           y="2.4356911" />
        <path
           style="display:inline;fill:none;stroke:#000000;stroke-width:0.264583px;stroke-linecap:round;stroke-linejoin:bevel;stroke-opacity:1;paint-order:stroke markers fill"
           d="M 3.6084316,2.4356911 6.4350362,4.8864173 H 3.6084316 L 6.4350362,2.4356911"
           id="path1308" />
        <path
           style="display:inline;fill:none;stroke:#000000;stroke-width:0.264583px;stroke-linecap:butt;stroke-linejoin:miter;stroke-opacity:1"
           d="M 7.1266521,3.112272 C 7.3070739,2.9168153 7.4724602,2.5860425 7.9535843,2.7213587 8.4347087,2.8566749 8.1640762,3.1874478 8.8556923,3.1573774 9.5473084,3.1273073 9.8329758,2.6912885 10.40431,2.6762533 c 0.571336,-0.015035 0.646512,0.6164405 1.413303,0.345808"
           id="path1442" />
        <path
           style="display:inline;fill:none;stroke:#000000;stroke-width:0.264583px;stroke-linecap:butt;stroke-linejoin:miter;stroke-opacity:1"
           d="m 6.991336,3.8790639 h 4.630821"
           id="path1444" />
        <path
           style="display:inline;fill:none;stroke:#000000;stroke-width:0.264583px;stroke-linecap:butt;stroke-linejoin:miter;stroke-opacity:1"
           d="m 6.991336,4.3902582 h 4.239908"
           id="path1446" />
        <path
           style="display:inline;fill:none;stroke:#000000;stroke-width:0.264583px;stroke-linecap:butt;stroke-linejoin:miter;stroke-opacity:1"
           d="M 6.991336,4.916488 H 8.4347087"
           id="path1448" />
        <g
           id="g9972"
           transform="matrix(0.22792402,0,0,0.22792402,-0.1192443,6.7580521)">
          <path
             d="M 8.1965924,9.3988947 3.3596937,7.1303066 V 6.4378446 L 8.1965924,4.0038924 V 5.1356026 L 4.7032767,6.7530698 v 0.031006 l 3.4933157,1.4934441 z"
             style="font-weight:bold;font-family:'Malgun Gothic';-inkscape-font-specification:'Malgun Gothic, Bold'"
             id="path6902" />
          <path
             d="M 20.314677,9.8329754 H 18.60936 L 17.400136,7.8227686 Q 17.033234,7.2129886 16.774853,7.0217864 16.516471,6.8305842 16.216749,6.8305842 H 15.679316 V 9.8329754 H 14.206542 V 2.2262288 h 2.583814 q 2.635489,0 2.635489,2.0567154 0,0.7544735 -0.444416,1.3125772 -0.439248,0.5529361 -1.255733,0.7854793 v 0.02067 Q 18.247626,6.57737 18.878077,7.574722 Z M 15.679316,3.3734419 v 2.3047616 h 0.878496 q 0.599445,0 0.956011,-0.346231 0.361734,-0.3513987 0.361734,-0.873329 0,-1.0852016 -1.291907,-1.0852016 z"
             style="font-weight:bold;font-family:'Malgun Gothic';-inkscape-font-specification:'Malgun Gothic, Bold'"
             id="path6904" />
          <path
             d="m 25.704512,7.5230462 h -3.627674 q 0.08785,1.384924 1.570959,1.384924 0.904334,0 1.612299,-0.4754217 v 1.0955369 q -0.754473,0.4392483 -1.93786,0.4392483 -1.266068,0 -1.974033,-0.733803 -0.702797,-0.733803 -0.702797,-2.0515478 0,-1.2919067 0.754473,-2.0980565 0.759641,-0.8113174 1.896519,-0.8113174 1.136878,0 1.772496,0.6976296 0.635618,0.6976296 0.635618,1.9171895 z M 24.345426,6.5773705 q 0,-1.2919067 -1.064531,-1.2919067 -0.444416,0 -0.785479,0.3513986 -0.335896,0.3513987 -0.418578,0.9405081 z"
             style="font-weight:bold;font-family:'Malgun Gothic';-inkscape-font-specification:'Malgun Gothic, Bold'"
             id="path6906" />
          <path
             d="m 26.924071,4.7480306 q 0.366901,-0.2118727 0.950843,-0.3410633 0.583942,-0.1343583 1.049028,-0.1343583 2.201409,0 2.201409,2.2324147 V 9.8329754 H 29.750763 V 9.0319932 h -0.02584 q -0.547769,0.9353405 -1.627803,0.9353405 -0.785479,0 -1.245398,-0.4392483 -0.459919,-0.4444159 -0.459919,-1.1885542 0,-1.5554556 1.850011,-1.8035017 L 29.75593,6.3293244 q 0,-1.0386929 -1.012854,-1.0386929 -0.966347,0 -1.819005,0.6046123 z m 1.751825,2.6044839 q -0.930172,0.1188555 -0.930172,0.8319879 0,0.3203929 0.222207,0.5219304 0.222208,0.2015374 0.599445,0.2015374 0.516763,0 0.852659,-0.3617339 Q 29.75593,8.1793348 29.75593,7.6263988 V 7.2129886 Z"
             style="font-weight:bold;font-family:'Malgun Gothic';-inkscape-font-specification:'Malgun Gothic, Bold'"
             id="path6908" />
          <path
             d="m 36.541024,9.6211027 q -0.583942,0.346231 -1.596797,0.346231 -1.219559,0 -1.979201,-0.7493059 -0.754473,-0.7544735 -0.754473,-1.9688658 0,-1.384924 0.811317,-2.1807385 0.811318,-0.7958145 2.165236,-0.7958145 0.883664,0 1.353918,0.2583813 V 5.7970589 Q 35.993256,5.393984 35.3318,5.393984 q -0.754474,0 -1.209225,0.4754217 -0.454751,0.470254 -0.454751,1.2764038 0,0.7958145 0.428913,1.245398 0.428913,0.4495835 1.178219,0.4495835 0.656288,0 1.266068,-0.4134101 z"
             style="font-weight:bold;font-family:'Malgun Gothic';-inkscape-font-specification:'Malgun Gothic, Bold'"
             id="path6910" />
          <path
             d="m 40.752642,9.7761315 q -0.366902,0.1860346 -1.02319,0.1860346 -1.669144,0 -1.669144,-1.7673284 V 5.4973365 H 37.161141 V 4.4017996 h 0.899167 V 3.1874074 l 1.4366,-0.4185778 v 1.63297 h 1.255734 V 5.4973365 H 39.496908 V 7.941624 q 0,0.899167 0.707965,0.899167 0.294555,0 0.547769,-0.165364 z"
             style="font-weight:bold;font-family:'Malgun Gothic';-inkscape-font-specification:'Malgun Gothic, Bold'"
             id="path6912" />
          <path
             d="m 49.491098,2.2262288 -3.689685,8.8676472 h -1.297075 l 3.67935,-8.8676472 z"
             style="font-weight:bold;font-family:'Malgun Gothic';-inkscape-font-specification:'Malgun Gothic, Bold'"
             id="path6914" />
          <path
             d="M 55.604399,7.0837979 50.7675,9.3523861 V 8.2310111 L 54.271151,6.7427346 V 6.7220641 L 50.7675,5.0942616 v -1.121375 l 4.836899,2.4132817 z"
             style="font-weight:bold;font-family:'Malgun Gothic';-inkscape-font-specification:'Malgun Gothic, Bold'"
             id="path6916" />
        </g>
      </g>
    </g>
  </g>
  <g
     inkscape:groupmode="layer"
     id="layer3"
     inkscape:label="CSS"
     sodipodi:insensitive="true"
     style="display:none">
    <g
       aria-label="CSS"
       id="text11496"
       style="font-size:8.14592px;line-height:1.25;stroke-width:0.203648">
      <g
         id="g14974"
         transform="translate(0,1.1887166)">
        <path
           d="m 3.8083603,5.6386628 0.76368,2.298995 q -0.23865,0.2267175 -0.70004,0.4255925 -0.4574125,0.1948975 -1.010285,0.1948975 -0.9744875,0 -1.6148649,-0.8710725 -0.64037752,-0.87505 -0.64037752,-2.2274 0,-1.3722374 0.64833252,-2.2671749 0.6523099,-0.898915 1.6466849,-0.898915 0.4335475,0 0.8949375,0.17501 0.46139,0.17501 0.7756125,0.4733225 l -0.76368,2.1438725 Q 3.4941378,4.9147579 3.0645678,4.9147579 q -0.5846925,0 -0.5846925,0.4574124 0,0.2187625 0.1591,0.35002 0.1591,0.1312575 0.4335475,0.1312575 0.4255925,0 0.7358375,-0.214785 z"
           style="font-family:'Gill Sans Ultra Bold Condensed';-inkscape-font-specification:'Gill Sans Ultra Bold Condensed, Normal'"
           id="path14866" />
        <path
           d="m 5.156733,6.0801653 q 0.19092,0.437525 0.4812775,0.7040175 0.2903575,0.2664925 0.5449174,0.2664925 0.1392125,0 0.22274,-0.09546 0.087505,-0.09546 0.087505,-0.246605 0,-0.14319 -0.06364,-0.246605 Q 6.3658929,6.3546128 6.2346354,6.2750628 L 5.793133,5.9966378 Q 5.3118555,5.7023028 5.093093,5.3125078 4.878308,4.9227129 4.878308,4.3539304 q 0,-2.060345 1.9807949,-2.060345 0.89096,0 1.65464,0.41366 L 8.0563304,4.6204229 q -0.20683,-0.4335475 -0.4773,-0.66822 -0.27047,-0.2346725 -0.548895,-0.2346725 -0.14319,0 -0.230695,0.087505 -0.087505,0.083528 -0.087505,0.22274 0,0.182965 0.11137,0.294335 0.1153475,0.11137 0.54094,0.357975 0.4415025,0.246605 0.68413,0.4693449 0.2426275,0.22274 0.3858175,0.5608275 0.14319,0.33411 0.14319,0.7994775 0,2.0484125 -1.98875,2.0484125 -1.0222174,0 -1.8813574,-0.4494575 z"
           style="font-family:'Gill Sans Ultra Bold Condensed';-inkscape-font-specification:'Gill Sans Ultra Bold Condensed, Normal'"
           id="path14868" />
        <path
           d="m 9.1978735,6.0801653 q 0.19092,0.437525 0.4812775,0.7040175 0.2903575,0.2664925 0.544918,0.2664925 0.139212,0 0.222739,-0.09546 0.0875,-0.09546 0.0875,-0.246605 0,-0.14319 -0.06364,-0.246605 -0.06364,-0.1073925 -0.194897,-0.1869425 L 9.8342735,5.9966378 q -0.4812775,-0.294335 -0.70004,-0.68413 -0.214785,-0.3897949 -0.214785,-0.9585774 0,-2.060345 1.9807945,-2.060345 0.89096,0 1.65464,0.41366 l -0.457412,1.9131775 q -0.20683,-0.4335475 -0.4773,-0.66822 -0.27047,-0.2346725 -0.548895,-0.2346725 -0.14319,0 -0.230695,0.087505 -0.08751,0.083528 -0.08751,0.22274 0,0.182965 0.11137,0.294335 0.115347,0.11137 0.54094,0.357975 0.441502,0.246605 0.68413,0.4693449 0.242627,0.22274 0.385817,0.5608275 0.14319,0.33411 0.14319,0.7994775 0,2.0484125 -1.98875,2.0484125 -1.022217,0 -1.881357,-0.4494575 z"
           style="font-family:'Gill Sans Ultra Bold Condensed';-inkscape-font-specification:'Gill Sans Ultra Bold Condensed, Normal'"
           id="path14870" />
      </g>
    </g>
  </g>
  <g
     inkscape:groupmode="layer"
     id="layer4"
     inkscape:label="Data"
     sodipodi:insensitive="true"
     style="display:none">
    <ellipse
       style="fill:none;stroke:#000000;stroke-width:0.264583;stroke-linecap:round;stroke-linejoin:bevel;stroke-opacity:1;paint-order:stroke markers fill"
       id="path15037"
       cx="1.3976035"
       cy="1.6320065"
       rx="0.75109285"
       ry="0.9854961" />
    <ellipse
       style="fill:none;stroke:#000000;stroke-width:0.264583;stroke-linecap:round;stroke-linejoin:bevel;stroke-opacity:1;paint-order:stroke markers fill"
       id="path15037-6"
       cx="3.4627259"
       cy="1.697664"
       rx="0.75109285"
       ry="0.9854961" />
    <ellipse
       style="fill:none;stroke:#000000;stroke-width:0.264583;stroke-linecap:round;stroke-linejoin:bevel;stroke-opacity:1;paint-order:stroke markers fill"
       id="path15037-0"
       cx="5.5793924"
       cy="1.697664"
       rx="0.75109285"
       ry="0.9854961" />
    <ellipse
       style="fill:none;stroke:#000000;stroke-width:0.264583;stroke-linecap:round;stroke-linejoin:bevel;stroke-opacity:1;paint-order:stroke markers fill"
       id="path15037-68"
       cx="9.2835579"
       cy="1.697664"
       rx="0.75109285"
       ry="0.9854961" />
    <ellipse
       style="fill:none;stroke:#000000;stroke-width:0.264583;stroke-linecap:round;stroke-linejoin:bevel;stroke-opacity:1;paint-order:stroke markers fill"
       id="path15037-7"
       cx="1.3142095"
       cy="4.3434973"
       rx="0.75109285"
       ry="0.9854961" />
    <path
       style="fill:none;stroke:#000000;stroke-width:0.264583px;stroke-linecap:butt;stroke-linejoin:miter;stroke-opacity:1"
       d="M 7.3055672,0.6465105 V 2.8128388"
       id="path15306" />
    <path
       style="fill:none;stroke:#000000;stroke-width:0.264583px;stroke-linecap:butt;stroke-linejoin:miter;stroke-opacity:1"
       d="m 11.016952,0.6465105 v 2.088194"
       id="path15308" />
    <path
       style="fill:none;stroke:#000000;stroke-width:0.264583px;stroke-linecap:butt;stroke-linejoin:miter;stroke-opacity:1"
       d="M 2.8128388,3.2816453 V 5.547543"
       id="path15310" />
    <path
       style="fill:none;stroke:#000000;stroke-width:0.264583px;stroke-linecap:butt;stroke-linejoin:miter;stroke-opacity:1"
       d="m 3.7895188,3.2816453 v 2.148696"
       id="path15312" />
    <path
       style="fill:none;stroke:#000000;stroke-width:0.264583px;stroke-linecap:butt;stroke-linejoin:miter;stroke-opacity:1"
       d="M 5.0006022,5.7038118 6.7195591,4.8052662 8.1259787,7.3837017 9.2198602,6.7976938 8.3213146,9.6886667 5.1959382,8.9463899 6.4070217,8.2822474 Z"
       id="path15314"
       sodipodi:nodetypes="cccccccc" />
    <g
       aria-label="&lt;code /&gt;"
       id="text16673"
       style="font-size:10.5833px;line-height:1.25;stroke-width:0.264583"
       transform="matrix(0.20579464,0,0,0.20579464,-2.2918548,11.675247)">
      <path
         d="m 29.856863,2.3758643 -5.963441,-2.65099257 v -0.64078572 l 5.963441,-2.65099251 v 0.9301728 l -4.70254,2.04121257 4.70254,2.04121253 z"
         id="path16875" />
      <path
         d="m 36.466258,2.4120377 q -0.485757,0.2325432 -0.925006,0.3617338 -0.43408,0.1291907 -0.925005,0.1291907 -0.625283,0 -1.147213,-0.1808669 -0.52193,-0.1860346 -0.893999,-0.5581037 -0.377237,-0.3720692 -0.583942,-0.9405081 -0.206705,-0.56843895 -0.206705,-1.32808009 0,-1.41592971 0.775144,-2.22207951 0.780311,-0.8061498 2.056715,-0.8061498 0.496092,0 0.971514,0.1395259 0.480589,0.139526 0.878497,0.3410634 v 1.080034 h -0.05168 q -0.444416,-0.346231 -0.919837,-0.5322656 -0.470254,-0.1860345 -0.919838,-0.1860345 -0.82682,0 -1.307409,0.5581037 -0.475422,0.552936 -0.475422,1.62780241 0,1.04386061 0.465086,1.60713189 0.470254,0.5581037 1.317745,0.5581037 0.294555,0 0.599445,-0.077514 0.30489,-0.077514 0.547768,-0.2015374 0.211873,-0.1085202 0.397908,-0.2273756 0.186034,-0.124023 0.294554,-0.2118727 h 0.05168 z"
         id="path16877" />
      <path
         d="m 42.631236,-0.10976422 q 0,1.41076212 -0.723467,2.22724712 -0.723468,0.8164851 -1.93786,0.8164851 -1.224728,0 -1.948196,-0.8164851 -0.7183,-0.816485 -0.7183,-2.22724712 0,-1.41076208 0.7183,-2.22724718 0.723468,-0.8216526 1.948196,-0.8216526 1.214392,0 1.93786,0.8216526 0.723467,0.8164851 0.723467,2.22724718 z m -1.002519,0 q 0,-1.12137498 -0.439248,-1.66397578 -0.439249,-0.5477685 -1.21956,-0.5477685 -0.790647,0 -1.229896,0.5477685 -0.43408,0.5426008 -0.43408,1.66397578 0,1.08520163 0.439248,1.64847292 0.439248,0.5581037 1.224728,0.5581037 0.775144,0 1.214392,-0.552936 0.444416,-0.55810374 0.444416,-1.65364062 z"
         id="path16879" />
      <path
         d="M 48.816885,2.7737715 H 47.845372 V 2.1691592 q -0.418578,0.3617339 -0.873329,0.5632713 -0.454751,0.2015375 -0.987017,0.2015375 -1.033525,0 -1.643305,-0.7958146 -0.604613,-0.7958145 -0.604613,-2.2065766 0,-0.733803 0.206705,-1.3074096 0.211873,-0.5736065 0.568439,-0.9766814 0.351399,-0.3927397 0.816485,-0.5994447 0.470254,-0.2067051 0.971514,-0.2067051 0.454751,0 0.80615,0.098185 0.351399,0.093017 0.738971,0.2945547 v -2.5011313 h 0.971513 z M 47.845372,1.3526742 v -3.3124488 q -0.39274,-0.1756993 -0.702798,-0.2428785 -0.310057,-0.067179 -0.676959,-0.067179 -0.816485,0 -1.271236,0.5684389 -0.454751,0.568439 -0.454751,1.61229959 0,1.02835773 0.351399,1.56579091 0.351398,0.5322656 1.126542,0.5322656 0.41341,0 0.837156,-0.180867 0.423745,-0.1860345 0.790647,-0.4754217 z"
         id="path16881" />
      <path
         d="m 55.560638,-0.01157931 h -4.252957 q 0,0.53226556 0.160196,0.93017282 0.160197,0.39273959 0.439249,0.64595339 0.268716,0.248046 0.635618,0.3720691 0.372069,0.124023 0.816485,0.124023 0.589109,0 1.183386,-0.2325432 0.599445,-0.2377108 0.852659,-0.4650864 h 0.05168 v 1.0593635 q -0.490925,0.2067051 -1.00252,0.346231 -0.511595,0.1395259 -1.074866,0.1395259 -1.4366,0 -2.24275,-0.775144 -0.80615,-0.7803116 -0.80615,-2.21174426 0,-1.41592974 0.769977,-2.24791764 0.775144,-0.8319879 2.036045,-0.8319879 1.167883,0 1.798334,0.6821267 0.635618,0.6821268 0.635618,1.93786006 z m -0.945676,-0.74413825 q -0.0052,-0.76480874 -0.387572,-1.18338654 -0.377237,-0.4185778 -1.152381,-0.4185778 -0.780311,0 -1.245398,0.4599188 -0.459919,0.4599188 -0.52193,1.14204554 z"
         id="path16883" />
      <path
         d="m 64.242251,-5.2670557 -3.705188,9.6117858 h -0.894 l 3.689686,-9.6117858 z"
         id="path16885" />
      <path
         d="M 71.95235,-0.27512827 65.988909,2.3758643 V 1.4456914 l 4.70254,-2.04121253 -4.70254,-2.04121257 v -0.9301728 l 5.963441,2.65099251 z"
         id="path16887" />
    </g>
  </g>
  <g
     inkscape:groupmode="layer"
     id="layer5"
     inkscape:label="SVG"
     style="display:none"
     sodipodi:insensitive="true">
    <g
       aria-label="&lt;SVG /&gt;"
       id="text18889"
       style="font-size:10.5833px;line-height:1.25;fill:none;stroke:#000000;stroke-width:0.264583;stroke-opacity:1"
       transform="matrix(0.37881174,0,0,0.78758147,3.8871736,4.6965792)">
      <path
         d="M -4.5240625,0.54197702 V 2.3609816 L -8.5548114,-0.07297056 V -1.5974205 l 4.0307489,-2.4442874 v 1.7983341 l -2.464958,1.40042685 z"
         style="font-family:'Gill Sans Ultra Bold Condensed';-inkscape-font-specification:'Gill Sans Ultra Bold Condensed, Normal';fill:none;stroke:#000000;stroke-opacity:1"
         id="path20885" />
      <path
         d="m -3.4750345,-0.35719004 q 0.2480461,0.56843895 0.6252829,0.91466994 0.3772367,0.346231 0.7079649,0.346231 0.1808669,0 0.2893871,-0.12402304 0.1136877,-0.12402305 0.1136877,-0.32039286 0,-0.18603457 -0.082682,-0.32039286 -0.082682,-0.13952592775 -0.2532137,-0.24287846 L -2.6482142,-0.4657102 q -0.6252828,-0.38240438 -0.9095023,-0.8888318 -0.2790518,-0.5064274 -0.2790518,-1.2453981 0,-2.6768306 2.5734781,-2.6768306 1.15754841,0 2.14973275,0.5374332 l -0.59427708,2.4856284 q -0.26871659,-0.5632713 -0.62011522,-0.8681613 -0.35139862,-0.3048899 -0.71313245,-0.3048899 -0.1860346,0 -0.2997224,0.1136877 -0.1136878,0.1085202 -0.1136878,0.2893871 0,0.2377109 0.1446936,0.3824044 0.1498611,0.1446936 0.70279721,0.4650864 0.57360657,0.3203929 0.8888318,0.60978 0.31522524,0.2893871 0.5012598,0.72863537 0.18603457,0.43408065 0.18603457,1.03869299 0,2.66132774 -2.58381338,2.66132774 -1.3280801,0 -2.4442875,-0.5839418 z"
         style="font-family:'Gill Sans Ultra Bold Condensed';-inkscape-font-specification:'Gill Sans Ultra Bold Condensed, Normal';fill:none;stroke:#000000;stroke-opacity:1"
         id="path20887" />
      <path
         d="M 7.1186001,-5.1424124 5.3409365,2.743386 H 3.0465102 L 1.180997,-5.1424124 h 2.3719407 l 0.6149476,2.6148191 0.594277,-2.6148191 z"
         style="font-family:'Gill Sans Ultra Bold Condensed';-inkscape-font-specification:'Gill Sans Ultra Bold Condensed, Normal';fill:none;stroke:#000000;stroke-opacity:1"
         id="path20889" />
      <path
         d="m 12.570447,2.7537213 h -0.03101 l -1.948195,0.082682 q -1.1420457,0 -1.7001494,-0.2790518 Q 8.332993,2.2782996 7.9092476,1.6530168 7.4906698,1.0225663 7.3098029,0.27842806 7.1341035,-0.4657102 7.1341035,-1.2563571 q 0,-1.8190046 0.8268203,-2.9197091 0.8319879,-1.1007045 2.1755712,-1.1007045 0.625283,0 1.312577,0.2842194 0.692462,0.2790519 1.260901,0.7803117 l -1.152381,2.3719407 q -0.682127,-0.5064274 -1.281571,-0.5064274 -0.4082429,0 -0.6614566,0.2945547 -0.2480461,0.2945547 -0.2480461,0.775144 0,1.01285485 0.7803117,1.01285485 h 0.05684 V -1.4992356 h 2.366773 z"
         style="font-family:'Gill Sans Ultra Bold Condensed';-inkscape-font-specification:'Gill Sans Ultra Bold Condensed, Normal';fill:none;stroke:#000000;stroke-opacity:1"
         id="path20891" />
      <path
         d="m 16.435831,2.8622414 1.291907,-7.8237869 h 0.728635 l -1.291907,7.8237869 z"
         style="font-family:'Gill Sans Ultra Bold Condensed';-inkscape-font-specification:'Gill Sans Ultra Bold Condensed, Normal';fill:none;stroke:#000000;stroke-opacity:1"
         id="path20893" />
      <path
         d="m 18.849114,-2.2330386 v -1.8086693 l 4.030748,2.4236169 v 1.52444993 L 18.849114,2.3609816 V 0.55231228 l 2.464957,-1.39525923 z"
         style="font-family:'Gill Sans Ultra Bold Condensed';-inkscape-font-specification:'Gill Sans Ultra Bold Condensed, Normal';fill:none;stroke:#000000;stroke-opacity:1"
         id="path20895" />
    </g>
    <path
       style="fill:none;stroke:#000000;stroke-width:0.264583;stroke-linecap:round;stroke-linejoin:round;stroke-miterlimit:4;stroke-dasharray:none;stroke-opacity:1"
       d="m 1.6686576,12.569369 c 0,0 -1.022147,-0.577661 -1.022147,-2.274601 0,-1.6969398 0.852453,-1.7535046 2.040311,-1.7252222 1.187858,0.028282 1.95148,0.1979763 2.460562,0.3959524 0.509082,0.1979763 2.6868216,1.3009868 3.5352914,0.7919053 0.8484698,-0.5090818 3.871659,-1.5675435 3.871659,0.6222115 0,2.189754 -1.637355,2.347433 -2.231284,1.612093 -0.5939288,-0.735341 0.254833,-1.284692 1.131293,-1.498964 C 12.014689,10.355754 10.678377,9.668507 9.0380021,10.06446 7.397627,10.460412 5.4473866,10.394356 3.0544916,9.5311448 0.6465106,8.6624919 0.6465106,10.751913 1.6686576,12.569369"
       id="path21566"
       sodipodi:nodetypes="csssssssssc" />
    <g
       id="g21531">
      <path
         style="fill:none;stroke:#000000;stroke-width:0.264583px;stroke-linecap:round;stroke-linejoin:round;stroke-opacity:1"
         d="m 2.3905858,12.569369 c 0,0 0.6921881,-0.266556 0.6921881,-0.80392 0,-0.537364 0.2545411,-0.735341 0.6222113,-0.650494 0.3676703,0.08485 0.8767522,-0.0403 0.5939288,0.707059 -0.2828232,0.747355 -1.2146823,0.747355 -1.9083282,0.747355"
         id="path17440" />
      <path
         style="fill:#ffffff;fill-opacity:1;stroke:#000000;stroke-width:0.264583px;stroke-linecap:butt;stroke-linejoin:miter;stroke-opacity:1"
         d="m 3.7898321,10.521026 c 0,0 1.3009872,0.311106 1.0747285,0.84847 -0.2262587,0.537365 1.0464461,-0.282823 1.3009872,-1.159575 0.254541,-0.8767525 5.5999012,-6.9574532 5.5999012,-6.9574532 0,0 1.725222,-2.29086861 -0.4808,-0.4525171 C 9.0786277,4.6383019 6.3918064,8.2018755 5.4867719,8.8523691 4.8928429,9.3331687 4.6665842,8.8806514 3.959526,9.7008388 3.2524678,10.521026 3.7898321,10.521026 3.7898321,10.521026 Z"
         id="path17442"
         sodipodi:nodetypes="csscscsc" />
    </g>
  </g>
</svg>
